<svg xmlns="http://www.w3.org/2000/svg" width="224" height="41" fill="none"><path fill="#193cb8" d="M5.659 1.584H0v24.27h5.659V1.583Zm109.087 0h-5.659v27.324h5.659V1.584Z"/><path fill="#193cb8" d="M31.349 20.846c0 10.749-7.144 19.423-19.759 19.423H0v-5.544h13.019c7.548 0 12.793-6.185 12.793-13.87 0-7.683-5.245-13.869-12.793-13.869H0V1.442h11.58c12.907-.018 19.769 8.656 19.769 19.404Zm6.918 19.414V1.424h5.528V40.26h-5.528Zm44.425-13.257h5.743c-2.35 7.967-9.212 13.719-18.02 13.719-10.95 0-19.824-8.9-19.824-19.885C50.59 9.853 59.464.952 70.415.952c7.84 0 13.828 4.394 17.118 10.862l-5.593 1.622c-2.19-4.158-6.336-6.94-11.525-6.94-7.896 0-14.288 6.412-14.288 14.332 0 7.92 6.392 14.331 14.288 14.331 6.035.019 10.369-3.357 12.277-8.156Zm6.617-6.157a22.71 22.71 0 0 1-.31 3.696H69.034v-5.544l20.163.057c.056.519.112 1.15.112 1.791Zm6.712 19.414V1.424h5.527V40.26h-5.527Zm39.8-11.672c0 6.704-4.663 11.672-12.446 11.672h-14.288v-5.543h13.367c4.784 0 7.839-1.962 7.839-6.242s-3.055-6.242-7.839-6.242h-13.367v-5.544h12.446c4.38 0 6.918-1.5 6.918-4.856 0-3.29-2.538-4.855-6.918-4.855h-12.446V1.434h11.581c8.356 0 13.31 3.47 13.31 10.173 0 3.875-2.077 6.817-4.606 7.797 4.55 1.094 6.449 5.309 6.449 9.184Zm40.138 11.672h-5.998l-3.741-8.325h-.019l-8.676-19.187-8.676 19.187h-.019l-3.741 8.325h-5.988L157.535.5l18.424 39.76Zm-3.713-33.386v-5.45h25.812v5.45h-25.812Zm10.142 33.386V10.042h5.527V40.26h-5.527Zm41.21-38.836v5.544H201.47V1.424h22.128ZM201.47 23.619V18.15h19.364v5.469H201.47Zm5.527 11.097h16.591v5.544H201.47v-5.563h5.527v.02Z"/><path fill="#193cb8" d="M206.95 1.424h-5.48V40.26h5.48V1.424Z"/></svg>