<svg xmlns="http://www.w3.org/2000/svg" width="800" height="792" fill="#193cb8" viewBox="0 0 32 31.68"><path d="M22.462.058H9.565a9.514 9.407 0 0 0-9.507 9.4v12.751a9.514 9.407 0 0 0 9.507 9.402h12.897a9.516 9.409 0 0 0 9.507-9.402V9.458a9.511 9.404 0 0 0-9.507-9.4Zm6.298 22.151a6.3 6.229 0 0 1-6.298 6.228H9.565a6.297 6.226 0 0 1-6.297-6.228V9.458a6.295 6.225 0 0 1 6.297-6.226h12.897a6.298 6.227 0 0 1 6.297 6.226Z" style="stroke-width:1.44238"/><path d="M16.014 7.676c-4.552 0-8.25 3.66-8.25 8.158 0 4.5 3.7 8.158 8.25 8.158s8.25-3.658 8.25-8.158c0-4.499-3.698-8.158-8.25-8.158zm0 13.142a5.04 4.984 0 1 1-.001-9.968 5.04 4.984 0 0 1 .001 9.968zm8.268-15.036a1.977 1.955 0 1 1-1.978 1.956c0-1.078.74-1.956 1.978-1.956z" style="stroke-width:1.44238"/></svg>