<svg xmlns="http://www.w3.org/2000/svg" id="Warstwa_1" version="1.1" viewBox="0 0 800 800"><defs><style>.st0{fill:#193cb8}</style></defs><path d="M200 254.55c30.12 0 54.55-24.42 54.55-54.55s-24.42-54.55-54.55-54.55-54.55 24.42-54.55 54.55 24.42 54.55 54.55 54.55ZM145.45 327.27c0-20.08 16.28-36.36 36.36-36.36h36.36c20.08 0 36.36 16.28 36.36 36.36v290.91c0 20.08-16.28 36.36-36.36 36.36h-36.36c-20.08 0-36.36-16.28-36.36-36.36V327.27ZM363.64 654.55H400c20.08 0 36.36-16.28 36.36-36.36V454.55c0-54.55 109.09-90.91 109.09-18.18V618.2c0 20.08 16.28 36.35 36.36 36.35h36.36c20.08 0 36.36-16.28 36.36-36.36V400.01c0-72.73-54.55-109.09-127.27-109.09s-90.91 54.55-90.91 54.55v-18.18c0-20.08-16.28-36.36-36.36-36.36h-36.36c-20.08 0-36.36 16.28-36.36 36.36V618.2c0 20.08 16.28 36.36 36.36 36.36Z" class="st0"/><path d="M690.91 0C751.16 0 800 48.84 800 109.09v581.82C800 751.16 751.16 800 690.91 800H109.09C48.84 800 0 751.16 0 690.91V109.09C0 48.84 48.84 0 109.09 0h581.82Zm0 72.73c20.08 0 36.36 16.28 36.36 36.36v581.82c0 20.08-16.28 36.36-36.36 36.36H109.09c-20.08 0-36.36-16.28-36.36-36.36V109.09c0-20.08 16.28-36.36 36.36-36.36h581.82Z" style="fill-rule:evenodd;fill:#193cb8"/></svg>