<svg xmlns="http://www.w3.org/2000/svg" id="Warstwa_1" data-name="Warstwa 1" viewBox="0 0 1348.34 212.92"><g><path d="M495.66,1.33l-25.42,77.71h-19.32l-17.1-52.62-17.65,52.62h-19.2L371.44,1.33h18.65l17.54,54.62L425.95,1.33h16.65l17.76,55.06L478.45,1.33h17.21,0Z" style="fill: #fff;"></path><path d="M562.61,62.39h-36.08l-6.88,16.65h-18.43L535.85,1.33h17.76l34.75,77.71h-18.87l-6.88-16.65h0ZM556.94,48.73l-12.32-29.75-12.32,29.75h24.64Z" style="fill: #fff;"></path><path d="M598.68,71.38l6.11-13.54c6.55,4.77,16.32,8.1,25.64,8.1,10.66,0,14.99-3.55,14.99-8.33,0-14.54-45.18-4.55-45.18-33.41,0-13.21,10.66-24.2,32.75-24.2,9.77,0,19.76,2.33,26.98,6.88l-5.55,13.65c-7.22-4.11-14.65-6.11-21.54-6.11-10.66,0-14.76,4-14.76,8.88,0,14.32,45.18,4.44,45.18,32.97,0,12.99-10.77,24.09-32.97,24.09-12.32,0-24.76-3.66-31.64-8.99h-.01Z" style="fill: #fff;"></path><path d="M677.83,71.38l6.11-13.54c6.55,4.77,16.32,8.1,25.64,8.1,10.66,0,14.99-3.55,14.99-8.33,0-14.54-45.18-4.55-45.18-33.41,0-13.21,10.66-24.2,32.75-24.2,9.77,0,19.76,2.33,26.98,6.88l-5.55,13.65c-7.22-4.11-14.65-6.11-21.54-6.11-10.66,0-14.76,4-14.76,8.88,0,14.32,45.18,4.44,45.18,32.97,0,12.99-10.77,24.09-32.97,24.09-12.32,0-24.76-3.66-31.64-8.99h-.01Z" style="fill: #fff;"></path><path d="M823.26,64.61v14.43h-60.17V1.33h58.72v14.43h-40.85v16.87h36.08v13.99h-36.08v17.98h42.3Z" style="fill: #fff;"></path><path d="M895.42,79.04l-14.99-21.65h-16.54v21.65h-17.98V1.33h33.64c20.76,0,33.75,10.77,33.75,28.2,0,11.66-5.88,20.2-15.98,24.53l17.43,24.98h-19.33ZM878.54,15.99h-14.65v27.09h14.65c10.99,0,16.54-5.11,16.54-13.54s-5.55-13.54-16.54-13.54h0Z" style="fill: #fff;"></path><path d="M964.13,48.51l-10.43,10.88v19.65h-17.87V1.33h17.87v36.3L988.11,1.33h19.98l-32.19,34.63,34.08,43.07h-20.98l-24.87-30.53h0Z" style="fill: #fff;"></path><path d="M1075.81,79.04l-14.99-21.65h-16.54v21.65h-17.98V1.33h33.64c20.76,0,33.75,10.77,33.75,28.2,0,11.66-5.88,20.2-15.98,24.53l17.43,24.98h-19.33ZM1058.93,15.99h-14.65v27.09h14.65c10.99,0,16.54-5.11,16.54-13.54s-5.55-13.54-16.54-13.54h0Z" style="fill: #fff;"></path><path d="M1167.39,62.39h-36.08l-6.88,16.65h-18.43L1140.64,1.33h17.76l34.75,77.71h-18.87l-6.88-16.65h-.01ZM1161.73,48.73l-12.32-29.75-12.32,29.75h24.64,0Z" style="fill: #fff;"></path><path d="M1227.56,15.76v20.54h35.97v14.43h-35.97v28.31h-17.98V1.33h58.72v14.43h-40.74Z" style="fill: #fff;"></path><path d="M1305.49,15.99h-24.87V1.34h67.72v14.65h-24.87v63.05h-17.98V15.99h0Z" style="fill: #fff;"></path><path d="M436.38,173.4h7.88v29.64c-7.33,6.55-17.76,9.88-28.53,9.88-23.65,0-40.96-16.76-40.96-39.52s17.32-39.52,41.07-39.52c11.77,0,21.98,3.77,28.86,11.21l-5.11,5.22c-6.55-6.44-14.32-9.1-23.42-9.1-19.2,0-33.3,13.65-33.3,32.19s14.1,32.19,33.19,32.19c7.44,0,14.32-1.67,20.31-5.99v-26.2h.01Z" style="fill: #fff;"></path><path d="M556.5,134.55v77.71h-7.88v-62.16l-30.53,52.29h-3.89l-30.53-51.95v61.83h-7.88v-77.71h6.77l33.75,57.61,33.41-57.61h6.78Z" style="fill: #fff;"></path><path d="M655.08,191.5c0,13.21-9.77,20.76-29.2,20.76h-35.75v-77.71h33.52c17.32,0,27.31,7.33,27.31,19.98,0,8.88-4.77,14.76-11.88,17.65,9.99,2.22,15.99,8.77,15.99,19.32h.01ZM598.35,141.32v28.2h24.76c12.43,0,19.65-4.77,19.65-14.1s-7.22-14.1-19.65-14.1h-24.76ZM646.86,190.83c0-10.1-7.44-14.54-21.09-14.54h-27.42v29.2h27.42c13.65,0,21.09-4.44,21.09-14.65h0Z" style="fill: #fff;"></path><path d="M747.1,134.55v77.71h-8.1v-35.86h-48.62v35.86h-8.21v-77.71h8.21v34.63h48.62v-34.63h8.1Z" style="fill: #fff;"></path></g><polygon points="327.95 1.55 272.76 1.55 175.74 106.99 272.76 212.43 327.95 212.43 230.93 106.99 327.95 1.55" style="fill: #fb0;"></polygon><polygon points="242.71 1.55 187.52 1.55 90.5 106.99 187.52 212.43 242.71 212.43 145.69 106.99 242.71 1.55" style="fill: #fff;"></polygon><polygon points="157.51 1.55 42.44 1.55 0 1.55 0 43.98 0 212.92 42.44 212.92 42.44 43.98 118.34 43.98 157.51 1.55" style="fill: #fff;"></polygon></svg>