<?xml version="1.0" encoding="UTF-8"?>
<svg version="1.1" xmlns="http://www.w3.org/2000/svg" width="512" height="512">
<path d="M0 0 C11.30104804 -0.11322648 22.60171571 -0.20484603 33.90320396 -0.25906086 C39.15166778 -0.28508902 44.39972142 -0.3203628 49.64794922 -0.37719727 C54.71841048 -0.43175934 59.78847866 -0.46147148 64.85921097 -0.47438622 C66.78802294 -0.48358279 68.71681483 -0.50154133 70.64545822 -0.52865028 C84.98552562 -0.72208969 94.32737144 0.75656562 105 11 C106.0828125 11.9590625 106.0828125 11.9590625 107.1875 12.9375 C109.83821651 15.95383258 113 19.87525923 113 24 C113.66 24 114.32 24 115 24 C122.23234265 40.39208626 129.25703952 57.00340808 131 75 C131.08467529 75.84175781 131.16935059 76.68351562 131.2565918 77.55078125 C134.07078273 107.72891404 132.79963922 140.96269504 120 169 C119.34 169 118.68 169 118 169 C117.71125 169.886875 117.4225 170.77375 117.125 171.6875 C116.16851252 174.50382424 115.13201054 177.25083156 114 180 C116.53771484 183.30961426 116.53771484 183.30961426 119.4375 186.2890625 C121.5841197 188.63961108 122.78463408 191.2117379 124.1875 194.0625 C124.71730469 195.12597656 125.24710937 196.18945312 125.79296875 197.28515625 C127 200 127 200 127 202 C127.66 202.33 128.32 202.66 129 203 C145.70611038 235.21892717 145.30522946 284.71059465 134.6875 318.4375 C134.13971071 319.96369369 133.57423242 321.48355765 133 323 C132.50352189 324.33188804 132.00747012 325.66393504 131.51171875 326.99609375 C130.45024904 329.84144442 129.38053288 332.68349433 128.3046875 335.5234375 C127.49957092 337.66880802 126.72462593 339.82612221 126 342 C125.34 342 124.68 342 124 342 C122.92474806 344.65228812 121.90543849 347.28368454 121 350 C120.34 350 119.68 350 119 350 C118.34 351.98 117.68 353.96 117 356 C116.34 356 115.68 356 115 356 C115 356.66 115 357.32 115 358 C113.06015587 359.74795847 111.12555652 361.34717946 109.0625 362.9375 C108.51787109 363.38029297 107.97324219 363.82308594 107.41210938 364.27929688 C100.10366743 369.94862005 92.53615201 371.45774032 83.44116211 371.34057617 C82.53276581 371.34101425 81.62436951 371.34145233 80.68844604 371.34190369 C77.71785172 371.33983152 74.74783817 371.31657531 71.77734375 371.29296875 C69.70512704 371.2873672 67.63290633 371.28309974 65.5606842 371.28010559 C60.13059343 371.26870088 54.70074685 371.23927156 49.27075195 371.20599365 C43.72024844 371.17519818 38.16970512 371.16158006 32.61914062 371.14648438 C21.7459697 371.11439744 10.87304345 371.06166546 0 371 C0 359.12 0 347.24 0 335 C2.75029541 334.98541748 5.50059082 334.97083496 8.33422852 334.95581055 C17.43068042 334.90542832 26.52696179 334.83882668 35.62324619 334.76428509 C41.13724361 334.71959599 46.65116738 334.68033647 52.1652832 334.65356445 C57.48871348 334.62751716 62.81186016 334.58710424 68.13511467 334.53681374 C70.16399541 334.52015475 72.19292519 334.50863445 74.2218647 334.50238609 C77.06821405 334.49273463 79.91383943 334.46466241 82.76000977 334.43237305 C83.59511078 334.43380814 84.43021179 334.43524323 85.2906189 334.4367218 C91.35476452 334.33970669 96.53149637 333.46850363 101 329 C101.99 328.566875 101.99 328.566875 103 328.125 C106.21309741 326.31763271 106.75422736 323.66051396 108 320.3125 C109 318 109 318 111 317 C112.10646083 314.59337432 113.10816923 312.21593499 114.0625 309.75 C114.33126953 309.08097656 114.60003906 308.41195313 114.87695312 307.72265625 C116.27671845 304.16913729 117.37251423 300.76491463 118 297 C118.33214492 295.62471244 118.66546997 294.24970934 119 292.875 C123.43552678 272.71652379 121.84616681 250.38855835 115 231 C113 225.24305556 113 225.24305556 113 223 C112.34 222.67 111.68 222.34 111 222 C110.66666667 220.66666667 110.33333333 219.33333333 110 218 C109.34 217.67 108.68 217.34 108 217 C106.65922122 215.2466739 105.44984107 213.4253733 104.21875 211.59375 C103.07270386 209.85350389 103.07270386 209.85350389 101 209 C101 208.34 101 207.68 101 207 C94.38152259 204.71144778 88.50273306 203.55531546 81.51123047 203.56762695 C80.62219528 203.5574353 79.7331601 203.54724365 78.81718445 203.53674316 C75.91711926 203.50686658 73.01738568 203.49738634 70.1171875 203.48828125 C68.09122644 203.47141574 66.06527573 203.453263 64.03933716 203.43388367 C58.7359948 203.38658089 53.43269441 203.35664425 48.12921143 203.33044434 C42.70584836 203.30053889 37.28262959 203.25404305 31.859375 203.20898438 C21.23964262 203.1231757 10.61992468 203.05726647 0 203 C0 191.12 0 179.24 0 167 C3.75407227 166.98598145 3.75407227 166.98598145 7.58398438 166.97167969 C15.87021241 166.93785175 24.15619292 166.88227044 32.4422226 166.81609726 C37.46409883 166.77665571 42.48580059 166.7444509 47.5078125 166.72900391 C52.35800409 166.71381549 57.2077159 166.67933106 62.05769348 166.63169098 C63.90432048 166.61689972 65.75101598 166.60896028 67.59770203 166.60811615 C70.19260287 166.60573791 72.78618696 166.57859061 75.38085938 166.54589844 C76.1375592 166.5509288 76.89425903 166.55595917 77.67388916 166.56114197 C82.63349392 166.46501022 86.04703446 165.31729954 90.35770416 162.85580826 C92 162 92 162 94 162 C94.268125 161.443125 94.53625 160.88625 94.8125 160.3125 C96.10899496 157.78774666 97.42476323 155.36285516 99 153 C99.66 153 100.32 153 101 153 C101.33 151.35 101.66 149.7 102 148 C102.66 148 103.32 148 104 148 C104.18175781 147.29875 104.36351562 146.5975 104.55078125 145.875 C106.85026271 137.19593152 106.85026271 137.19593152 108.5625 133.125 C112.38819234 123.22972528 112.35982272 112.14790955 112.3125 101.6875 C112.30831055 100.41656494 112.30412109 99.14562988 112.29980469 97.83618164 C112.1880863 88.53681436 111.47810035 79.97646652 109 71 C108.70996094 69.93265625 108.41992188 68.8653125 108.12109375 67.765625 C104.83976188 56.94684043 99.43827103 44.53954662 89.4168396 38.42350769 C85.23360155 36.68070667 81.90232695 36.55941534 77.42431641 36.56762695 C76.58463318 36.5574353 75.74494995 36.54724365 74.87982178 36.53674316 C72.12033348 36.50668808 69.36119276 36.49735872 66.6015625 36.48828125 C64.681985 36.47142901 62.76241849 36.45327803 60.84286499 36.43388367 C55.80250485 36.3864368 50.76218932 36.35659303 45.72167969 36.33044434 C40.57347812 36.30061204 35.42543014 36.25409085 30.27734375 36.20898438 C20.18495862 36.12301153 10.09258936 36.0571827 0 36 C0 24.12 0 12.24 0 0 Z " fill="#1022AF" transform="translate(195,7)"/>
<path d="M0 0 C6.27 0 12.54 0 19 0 C19.78375 2.7225 20.5675 5.445 21.375 8.25 C21.61782715 9.08047852 21.8606543 9.91095703 22.11083984 10.76660156 C23.30151053 14.98093636 24.23211572 19.14523928 24.91015625 23.47265625 C26.09168514 30.9449961 27.79321417 38.28259572 29.48193359 45.65310669 C30.49652648 50.08219076 31.49977635 54.51384671 32.50390625 58.9453125 C32.71153595 59.86053177 32.91916565 60.77575104 33.13308716 61.71870422 C35.11545526 70.47338602 37.03345733 79.24168275 38.9442749 88.01220703 C42.18557342 102.88693709 45.53424609 117.73190417 48.99008179 132.55819702 C52.67374256 148.3814298 56.13728304 164.24998578 59.55053711 180.13354492 C62.2034027 192.46155151 64.92947096 204.76812297 68 217 C76.92486022 178.04959512 76.92486022 178.04959512 85.6875 139.0625 C85.92714478 137.9865155 85.92714478 137.9865155 86.17163086 136.88879395 C87.69796809 130.02985091 89.19516246 123.16829687 90.55053711 116.27319336 C91.80512597 109.92801307 93.1786937 103.60620084 94.51953125 97.27880859 C94.93504218 95.30808754 95.34320369 93.3358196 95.75 91.36328125 C97.36413015 83.61362228 99.22579335 75.9424926 101.19897461 68.27758789 C102.66131571 62.55022979 103.87628414 56.80243874 105 51 C107.39292768 39.05556075 110.09894717 27.20078289 112.98144531 15.36499023 C113.35221191 13.84240601 113.35221191 13.84240601 113.73046875 12.2890625 C113.95114014 11.38881348 114.17181152 10.48856445 114.39916992 9.56103516 C114.80906896 7.81384261 115.18010573 6.0571886 115.5168457 4.29443359 C116 2 116 2 117 0 C123.27 0 129.54 0 136 0 C136 122.43 136 244.86 136 371 C129.73 371 123.46 371 117 371 C116.67 278.27 116.34 185.54 116 90 C115.34 93.96 114.68 97.92 114 102 C113.3916541 104.61317814 112.75021247 107.21907827 112.0625 109.8125 C110.40737165 116.20160192 109.03794573 122.60966818 107.77734375 129.08984375 C105.47150642 140.68855314 102.76298932 152.18927281 99.83203125 163.64453125 C99.37014559 165.50725321 98.92567126 167.37545961 98.55297852 169.25805664 C97.87921256 172.59892441 97.10066372 175.90892407 96.3203125 179.2265625 C95.96976026 180.72502942 95.61951582 182.22356836 95.26953125 183.72216797 C95.08342285 184.51894958 94.89731445 185.3157312 94.70556641 186.13665771 C90.08083473 205.95853386 85.75934017 225.83979753 81.54345703 245.75244141 C81.31457794 246.82677429 81.08569885 247.90110718 80.84988403 249.00799561 C80.41689973 251.0403986 79.98697981 253.07345749 79.56051636 255.10723877 C79.36910065 256.00368103 79.17768494 256.90012329 78.98046875 257.82373047 C78.81442139 258.60988739 78.64837402 259.39604431 78.47729492 260.20602417 C78 262 78 262 77 263 C75.65732587 263.08631874 74.31025678 263.10706473 72.96484375 263.09765625 C72.15595703 263.09443359 71.34707031 263.09121094 70.51367188 263.08789062 C69.66353516 263.07951172 68.81339844 263.07113281 67.9375 263.0625 C67.08349609 263.05798828 66.22949219 263.05347656 65.34960938 263.04882812 C63.23304337 263.03700373 61.11651315 263.01906769 59 263 C55.60183131 250.96293679 52.87877008 238.79860517 50.19723511 226.58517456 C49.15621322 221.8438938 48.10800803 217.10420963 47.06019592 212.36442566 C46.51845436 209.91366672 45.97706442 207.46283003 45.4360199 205.01191711 C42.63182773 192.31400447 39.78819465 179.62504021 36.9375 166.9375 C36.48037476 164.90055621 36.02326178 162.86360968 35.56616211 160.82666016 C32.79671022 148.49377539 30.00330984 136.16834243 27.0625 123.875 C25.42305193 116.96906236 23.93989639 110.0373992 22.50024414 103.08740234 C21.41291726 97.87099278 20.24189892 92.68165345 19 87.5 C17.57262082 81.53887984 16.24926497 75.56348799 15 69.5625 C11.52047079 52.78172046 11.52047079 52.78172046 7.5 36.125 C5.50594494 28.32312337 4.03457706 20.40751689 2.49169922 12.50683594 C1.67350192 8.33541096 0.83581419 4.16792676 0 0 Z " fill="#1122AF" transform="translate(26,7)"/>
<path d="M0 0 C6.27 0.33 12.54 0.66 19 1 C24.07096114 22.48016285 28.96150301 43.99971831 33.82324219 65.52807617 C38.10541238 84.51787987 38.10541238 84.51787987 42.53320312 103.47412109 C44.79786024 112.99942052 46.86702104 122.5594009 48.86328125 132.14453125 C50.86501396 141.73603581 52.93703724 151.31008845 55.0625 160.875 C55.30782471 161.97932373 55.55314941 163.08364746 55.8059082 164.22143555 C58.10670456 174.54074215 60.47771568 184.84246814 62.9375 195.125 C64.46625149 201.57868096 65.87262982 208.05005583 67.2097168 214.54589844 C68.4237584 220.38960178 69.71581577 226.21363584 71.03125 232.03515625 C71.3987703 233.66690917 71.76628325 235.29866374 72.13378906 236.93041992 C72.6891569 239.39508501 73.24639974 241.85925151 73.80944824 244.32217407 C74.34120235 246.64864265 74.8664331 248.97650519 75.390625 251.3046875 C75.55292603 252.00606339 75.71522705 252.70743927 75.88244629 253.43006897 C76.70878176 257.12856384 77 260.15416379 77 264 C71.06 264 65.12 264 59 264 C56.72205584 256.9383731 54.70051669 250.10463985 53.48828125 242.7890625 C52.44455734 236.82731151 50.94567055 230.95480423 49.53857422 225.0703125 C47.37219015 216.0080833 45.3280044 206.9329822 43.42993164 197.81054688 C41.77515822 189.87284379 39.95175351 181.9796695 38.06640625 174.09375 C35.52661718 163.42070646 33.26245198 152.74664691 31 142 C25.555 116.755 25.555 116.755 20 91 C19.67 183.73 19.34 276.46 19 372 C12.73 372 6.46 372 0 372 C0 249.24 0 126.48 0 0 Z " fill="#1628B1" transform="translate(2,6)"/>
<path d="M0 0 C6.80524723 1.13420787 6.80524723 1.13420787 9.9375 2.75 C10.54464844 3.05421875 11.15179688 3.3584375 11.77734375 3.671875 C18.17683133 7.49582188 22.56933512 11.44677208 26.875 17.5625 C27.3596875 18.22185547 27.844375 18.88121094 28.34375 19.56054688 C30.61195458 22.71259096 32.22351754 25.14558335 33 29 C33.66 29 34.32 29 35 29 C48.14295103 60.74294547 53.53876137 89.55730281 53 124 C52.97486328 125.82917969 52.97486328 125.82917969 52.94921875 127.6953125 C52.33606605 141.11459721 48.46750188 154.70667654 43.8125 167.25 C43.56282471 167.92329346 43.31314941 168.59658691 43.0559082 169.2902832 C41.26530271 173.86734865 41.26530271 173.86734865 39 175 C38.29373761 176.98636298 37.63106429 178.98848259 37 181 C36.36184656 182.34721283 35.70674629 183.68747118 35 185 C34.34 185 33.68 185 33 185 C33 185.99 33 186.98 33 188 C32.01 188.66 31.02 189.32 30 190 C29.67 190.99 29.34 191.98 29 193 C26.99609375 194.71875 26.99609375 194.71875 24.4375 196.5 C23.61121094 197.0878125 22.78492188 197.675625 21.93359375 198.28125 C13.92616963 202.97268357 7.20108852 203.45637175 -1.93359375 203.43359375 C-3.78235863 203.44145653 -3.78235863 203.44145653 -5.66847229 203.44947815 C-8.26635996 203.45588122 -10.86427668 203.4545837 -13.4621582 203.44604492 C-17.42126431 203.4375349 -21.37892677 203.46632401 -25.33789062 203.49804688 C-27.86979124 203.49965915 -30.40169439 203.49908086 -32.93359375 203.49609375 C-34.10885117 203.50732773 -35.28410858 203.51856171 -36.49497986 203.53013611 C-43.56889913 203.47060333 -48.82629969 202.50077014 -55 199 C-55.93972656 198.47277344 -56.87945312 197.94554687 -57.84765625 197.40234375 C-58.57855469 196.91894531 -59.30945313 196.43554688 -60.0625 195.9375 C-60.81660156 195.45152344 -61.57070313 194.96554687 -62.34765625 194.46484375 C-62.89292969 193.98144531 -63.43820312 193.49804688 -64 193 C-64 192.01 -64 191.02 -64 190 C-64.66 190 -65.32 190 -66 190 C-67.36363208 188.02053408 -68.69418644 186.0180755 -70 184 C-70.53625 183.484375 -71.0725 182.96875 -71.625 182.4375 C-73.47243052 180.50609537 -74.03956868 178.49430698 -75 176 C-75.81131564 174.0828317 -76.62387916 172.16619114 -77.4375 170.25 C-86.85730437 147.6424695 -88.48000855 124.95467187 -88.1875 100.6875 C-88.17239993 98.47071239 -88.1587211 96.25391464 -88.14648438 94.03710938 C-88.11396031 88.69114787 -88.06248336 83.34569178 -88 78 C-81.73 78 -75.46 78 -69 78 C-68.96261719 80.85785156 -68.92523438 83.71570313 -68.88671875 86.66015625 C-68.84028372 89.48029505 -68.78913078 92.3003125 -68.73754883 95.12036133 C-68.7046411 97.05485431 -68.67650742 98.98943545 -68.65356445 100.92407227 C-68.49785594 113.71536097 -68.07315114 125.99766767 -63.90112305 138.21899414 C-63 141 -63 141 -63 144 C-62.34 144.33 -61.68 144.66 -61 145 C-60.33333333 147.33333333 -59.66666667 149.66666667 -59 152 C-58.34 152.33 -57.68 152.66 -57 153 C-56.38125 153.94875 -55.7625 154.8975 -55.125 155.875 C-53.2004321 158.70524691 -51.71541192 160.06042006 -49 162 C-49 162.66 -49 163.32 -49 164 C-42.95661477 166.10544081 -37.43049782 166.30663276 -31.0625 166.30078125 C-29.50414429 166.30720894 -29.50414429 166.30720894 -27.91430664 166.31376648 C-25.72575609 166.31948938 -23.53718652 166.32002515 -21.34863281 166.31567383 C-18.0107367 166.31251018 -14.67372448 166.33601207 -11.3359375 166.36132812 C-9.20312611 166.36360104 -7.07031235 166.36430465 -4.9375 166.36328125 C-3.44972046 166.37709587 -3.44972046 166.37709587 -1.93188477 166.39118958 C6.45229353 166.33550692 12.17198019 164.34449862 18.48828125 158.6953125 C20.86002353 156.03552916 21.85862503 153.3569852 23 150 C23.66 150 24.32 150 25 150 C25.37125 148.63875 25.37125 148.63875 25.75 147.25 C26.97310818 142.91670245 28.48453798 138.69168285 30 134.453125 C36.7537675 111.13152161 34.58364089 84.02248898 25.1484375 61.7265625 C24 59 24 59 22.9765625 55.7109375 C22.303239 52.86414966 22.303239 52.86414966 20 52 C19.04992277 50.77520164 18.13827687 49.52033144 17.25 48.25 C12.18761632 41.41455923 8.35801358 39.13425509 0 36 C0 24.12 0 12.24 0 0 Z " fill="#1123AF" transform="translate(457,175)"/>
<path d="M0 0 C1.38091333 -0.0071136 2.76182375 -0.01481432 4.14273071 -0.02307129 C7.02915676 -0.03647241 9.91530949 -0.03810494 12.80175781 -0.03222656 C16.4792065 -0.02633663 20.15533212 -0.0569105 23.83252525 -0.09734344 C26.68267738 -0.12334395 29.53251618 -0.1260868 32.38277054 -0.12245178 C34.3906201 -0.12494186 36.39840362 -0.14954843 38.40609741 -0.17468262 C46.32484722 -0.115163 51.33472393 1.00775302 57.8515625 5.46875 C58.557435 5.79927368 59.2633075 6.12979736 59.99057007 6.47033691 C62.60805918 7.87460667 63.41742211 9.92641021 64.8515625 12.46875 C65.8415625 12.96375 65.8415625 12.96375 66.8515625 13.46875 C68.74787632 16.33097648 70.25723375 19.43073774 71.8515625 22.46875 C72.69654297 24.02722656 72.69654297 24.02722656 73.55859375 25.6171875 C81.07829535 39.93574784 84.70744861 54.49273424 86.8515625 70.46875 C87.02574707 71.65605713 87.19993164 72.84336426 87.37939453 74.06665039 C87.99687134 79.06343276 87.99520548 84.02977534 87.984375 89.05859375 C87.98533173 90.04372452 87.98628845 91.02885529 87.98727417 92.0438385 C87.9879509 94.11036239 87.9861322 96.17688847 87.98193359 98.2434082 C87.97653782 101.42078331 87.98191623 104.59801964 87.98828125 107.77539062 C87.98762117 109.78645865 87.98634145 111.79752658 87.984375 113.80859375 C87.98639923 114.7626561 87.98842346 115.71671844 87.99050903 116.69969177 C87.98578079 118.01224693 87.98578079 118.01224693 87.98095703 119.35131836 C87.98016144 120.12438828 87.97936584 120.89745819 87.97854614 121.69395447 C87.8515625 123.46875 87.8515625 123.46875 86.8515625 124.46875 C85.50888837 124.55506874 84.16181928 124.57581473 82.81640625 124.56640625 C82.00751953 124.56318359 81.19863281 124.55996094 80.36523438 124.55664062 C79.51509766 124.54826172 78.66496094 124.53988281 77.7890625 124.53125 C76.93505859 124.52673828 76.08105469 124.52222656 75.20117188 124.51757812 C73.08460587 124.50575373 70.96807565 124.48781769 68.8515625 124.46875 C68.83697998 123.31052734 68.82239746 122.15230469 68.80737305 120.95898438 C68.74855662 116.58256055 68.67134515 112.20660754 68.58911133 107.83056641 C68.55624779 105.95141347 68.52810168 104.07217094 68.50512695 102.19287109 C68.35543459 90.2620714 67.47042081 79.12501552 64.8515625 67.46875 C64.66416504 66.50074463 64.47676758 65.53273926 64.28369141 64.53540039 C63.88105634 62.49698583 63.38034844 60.47813656 62.8515625 58.46875 C62.1915625 58.13875 61.5315625 57.80875 60.8515625 57.46875 C60.12080602 55.1546878 59.45017992 52.82046131 58.8515625 50.46875 C58.1915625 50.46875 57.5315625 50.46875 56.8515625 50.46875 C55.90755208 48.7109375 54.96354167 46.953125 54.01953125 45.1953125 C52.80392757 43.16372635 52.80392757 43.16372635 49.8515625 41.46875 C49.8515625 40.80875 49.8515625 40.14875 49.8515625 39.46875 C46.22054564 37.81921953 43.34081336 37.20417366 39.36206055 37.14648438 C38.28711838 37.12726929 37.21217621 37.1080542 36.10466003 37.08825684 C34.95250504 37.07975708 33.80035004 37.07125732 32.61328125 37.0625 C31.41854691 37.05109985 30.22381256 37.03969971 28.99287415 37.0279541 C26.4670464 37.00907981 23.94116969 36.99599633 21.4152832 36.98828125 C17.5630859 36.96887105 13.71302465 36.90680777 9.86132812 36.84375 C7.40365847 36.83068853 4.94597359 36.82018814 2.48828125 36.8125 C1.34219894 36.7878064 0.19611664 36.76311279 -0.98469543 36.7376709 C-7.52530035 36.77387345 -11.54315903 37.53376753 -16.59855652 41.80090332 C-19.06567908 44.45580536 -20.58251836 47.20641845 -22.1484375 50.46875 C-22.8084375 50.46875 -23.4684375 50.46875 -24.1484375 50.46875 C-24.426875 51.31050781 -24.7053125 52.15226562 -24.9921875 53.01953125 C-25.76828216 55.33470553 -26.56019439 57.64463267 -27.3671875 59.94921875 C-27.79 61.17253906 -28.2128125 62.39585938 -28.6484375 63.65625 C-29.07125 64.86667969 -29.4940625 66.07710938 -29.9296875 67.32421875 C-32.89042109 76.80487811 -33.50713835 86.14494756 -33.4609375 96.03125 C-33.45674805 97.25835693 -33.45255859 98.48546387 -33.44824219 99.74975586 C-33.20018144 119.84927349 -29.5485405 142.29026306 -15.1484375 157.46875 C-14.5503125 158.04625 -13.9521875 158.62375 -13.3359375 159.21875 C-12.1484375 160.46875 -12.1484375 160.46875 -12.1484375 162.46875 C-11.4678125 162.736875 -10.7871875 163.005 -10.0859375 163.28125 C-6.753366 164.62845976 -3.45237804 166.05277548 -0.1484375 167.46875 C-0.1484375 179.34875 -0.1484375 191.22875 -0.1484375 203.46875 C-10.95875673 199.86531026 -17.4770738 195.6440719 -25.1484375 187.46875 C-26.13650391 186.54835937 -26.13650391 186.54835937 -27.14453125 185.609375 C-29.41058932 183.18871257 -30.83908139 180.76557382 -32.3984375 177.84375 C-32.91921875 176.88210937 -33.44 175.92046875 -33.9765625 174.9296875 C-35.1484375 172.46875 -35.1484375 172.46875 -35.1484375 170.46875 C-35.8084375 170.13875 -36.4684375 169.80875 -37.1484375 169.46875 C-38.74108968 166.59126918 -39.91007038 163.51250216 -41.1484375 160.46875 C-41.46941406 159.69660156 -41.79039062 158.92445313 -42.12109375 158.12890625 C-56.48213301 121.32510929 -59.66735788 72.69927467 -44.6484375 35.5859375 C-43.1484375 32.46875 -43.1484375 32.46875 -41.1484375 31.46875 C-40.46370355 29.14065457 -39.79990599 26.80637223 -39.1484375 24.46875 C-38.19278762 22.44718296 -37.20569003 20.43908426 -36.1484375 18.46875 C-35.4884375 18.46875 -34.8284375 18.46875 -34.1484375 18.46875 C-33.7153125 17.5715625 -33.7153125 17.5715625 -33.2734375 16.65625 C-32.1484375 14.46875 -32.1484375 14.46875 -30.1484375 11.46875 C-29.4884375 11.46875 -28.8284375 11.46875 -28.1484375 11.46875 C-27.9215625 10.89125 -27.6946875 10.31375 -27.4609375 9.71875 C-21.56065333 -0.39602287 -10.24567468 0.00157088 0 0 Z " fill="#1123AF" transform="translate(422.1484375,6.53125)"/>
<path d="M0 0 C9.32364634 9.78982865 10.85833825 21.73205057 10.75 34.6875 C10.76160156 36.0806543 10.76160156 36.0806543 10.7734375 37.50195312 C10.75154654 45.30060602 9.44499156 52.32797872 6.875 59.6875 C6.61460937 60.44160156 6.35421875 61.19570313 6.0859375 61.97265625 C5.89257812 62.51792969 5.69921875 63.06320312 5.5 63.625 C4.84 63.625 4.18 63.625 3.5 63.625 C3.5 64.615 3.5 65.605 3.5 66.625 C-0.52689594 70.23888098 -3.96799968 71.38041724 -9.25 71.1484375 C-13.25144643 70.21754545 -15.9243203 67.73579322 -18.5 64.625 C-26.29297868 51.36830933 -26.59123091 32.55988611 -23.3125 17.9375 C-21.09862193 10.61386542 -18.25364257 2.19453652 -11.1875 -1.625 C-6.86350682 -2.83169577 -3.89758475 -2.14367161 0 0 Z M-12 5.9375 C-13.72145461 7.49783661 -13.72145461 7.49783661 -13.5 9.625 C-14.16 9.625 -14.82 9.625 -15.5 9.625 C-15.5 10.615 -15.5 11.605 -15.5 12.625 C-16.49 13.12 -16.49 13.12 -17.5 13.625 C-22.53040166 25.29553185 -23.70094669 40.08914215 -19.1875 52.125 C-15.97095499 59.27200843 -15.97095499 59.27200843 -10.5 64.625 C-6.22629797 65.17899841 -4.27890065 65.22276097 -0.8125 62.5625 C8.18374808 51.13483352 8.60676181 38.69261805 7.1875 24.5 C6.10487965 17.54029773 4.13790087 10.28239637 -1.5 5.625 C-5.27893281 4.39898073 -8.45477941 4.07625919 -12 5.9375 Z " fill="#0F21B1" transform="translate(494.5,434.375)"/>
<path d="M0 0 C12 0 12 0 17 2 C17 2.66 17 3.32 17 4 C17.66 4 18.32 4 19 4 C19 4.66 19 5.32 19 6 C19.66 6 20.32 6 21 6 C21.81690177 8.22763988 22.62861872 10.4569486 23.4375 12.6875 C23.66759766 13.31333984 23.89769531 13.93917969 24.13476562 14.58398438 C29.0002197 28.05212536 28.77702854 44.55996634 24 58 C23.64243274 59.6616361 23.30275337 61.32750806 23 63 C22.34 63 21.68 63 21 63 C20.95875 63.7425 20.9175 64.485 20.875 65.25 C20 68 20 68 17.8125 70.3125 C14 72 14 72 0 72 C0 48.24 0 24.48 0 0 Z M3 7 C3 26.47 3 45.94 3 66 C11.8525555 66.44735728 11.8525555 66.44735728 18 62 C25.30351246 51.53886335 25.4197597 36.67414833 23.4296875 24.515625 C22.20418647 19.32982062 20.68793195 14.60788333 18 10 C17.34 10 16.68 10 16 10 C16 9.34 16 8.68 16 8 C12.73289481 6.18010841 12.73289481 6.18010841 3 7 Z " fill="#1021AF" transform="translate(298,433)"/>
<path d="M0 0 C4.37930193 1.13257809 5.8541205 2.39693176 8.625 5.9375 C11.23521543 10.79790115 11.96143576 14.4423826 11.625 19.9375 C10.635 20.2675 9.645 20.5975 8.625 20.9375 C8.295 17.9675 7.965 14.9975 7.625 11.9375 C6.965 11.9375 6.305 11.9375 5.625 11.9375 C5.295 10.9475 4.965 9.9575 4.625 8.9375 C1.94450927 7.32092201 1.94450927 7.32092201 -1.375 6.9375 C-5.14932714 8.67949714 -6.91613751 9.99891764 -8.75 13.75 C-9.79361706 19.07244701 -10.14594151 24.23730434 -7.828125 29.3046875 C-5.05589667 32.41971826 -1.04065422 33.45582623 2.8125 34.796875 C7.06027373 36.51958323 8.24380377 38.18922592 10.3125 42.25 C13.05864419 50.04037748 12.6944873 59.33329975 9.625 66.9375 C7.61461558 70.41196873 5.51940561 72.6393648 1.625 73.9375 C-2.63369149 73.9375 -5.05626715 72.86837025 -8.5 70.4375 C-11.2782296 66.73319386 -12.77128485 62.53162508 -13.375 57.9375 C-12.4453125 55.625 -12.4453125 55.625 -11.375 53.9375 C-9.375 56.9375 -9.375 56.9375 -8.4375 59.9375 C-7.22684003 63.62504777 -7.22684003 63.62504777 -4.375 65.9375 C-1.59894911 66.46018741 0.86220351 66.57196266 3.625 65.9375 C5.66918684 63.67030255 5.66918684 63.67030255 6.625 60.9375 C6.955 60.2775 7.285 59.6175 7.625 58.9375 C8.05121737 54.38025276 7.88581599 50.08943729 6.875 45.625 C4.26227931 42.50425029 2.59355128 42.04155678 -1.1875 40.6875 C-6.93781383 38.49192563 -9.67419712 36.25092782 -12.44921875 30.75 C-15.05985218 22.81896174 -13.97977467 14.39144084 -10.375 6.9375 C-7.50557319 2.72302937 -5.37395721 -0.09951773 0 0 Z " fill="#1021AE" transform="translate(19.375,432.0625)"/>
<path d="M0 0 C0.99 0 1.98 0 3 0 C3.00808685 0.56439285 3.01617371 1.12878571 3.02450562 1.71028137 C3.1111667 7.63250673 3.21068983 13.55442077 3.31738281 19.47631836 C3.35545322 21.68069187 3.39034259 23.88512288 3.421875 26.08959961 C3.46800576 29.27478461 3.52591683 32.45958119 3.5859375 35.64453125 C3.59748871 36.61582474 3.60903992 37.58711823 3.62094116 38.58784485 C3.80519183 47.30575908 4.89817248 55.80231297 8 64 C10.97 64.33 13.94 64.66 17 65 C17.45375 64.195625 17.9075 63.39125 18.375 62.5625 C20 60 20 60 22 59 C23.34988557 52.7352023 23.21952824 46.32540168 23.31640625 39.94140625 C23.33718735 38.79711655 23.35796844 37.65282684 23.37937927 36.47386169 C23.44449793 32.83679924 23.5035839 29.19966769 23.5625 25.5625 C23.60572108 23.08918571 23.6493365 20.61587827 23.69335938 18.14257812 C23.80014049 12.09512405 23.9019753 6.04760201 24 0 C24.99 0 25.98 0 27 0 C27.05096602 7.36487858 27.08584484 14.72971119 27.10986328 22.09472656 C27.11988281 24.5970225 27.13350213 27.09930684 27.15087891 29.6015625 C27.17530561 33.21096673 27.18652394 36.82021531 27.1953125 40.4296875 C27.20563507 41.53738495 27.21595764 42.6450824 27.22659302 43.78634644 C27.22802051 53.80627118 26.64800776 62.46329415 20.0078125 70.33984375 C17.75701752 72.20090964 16.6384805 72.6075605 13.75 72.6875 C10 72 10 72 7 70 C7 69.34 7 68.68 7 68 C6.34 68 5.68 68 5 68 C4.34219798 66.19180934 3.69944792 64.37814157 3.0625 62.5625 C2.70285156 61.55316406 2.34320313 60.54382813 1.97265625 59.50390625 C-0.18208954 51.74162924 -0.13975262 43.84608094 -0.09765625 35.83984375 C-0.0962413 34.80936417 -0.09482635 33.77888458 -0.09336853 32.71717834 C-0.08781447 29.45725481 -0.0752707 26.19740243 -0.0625 22.9375 C-0.05747906 20.71419371 -0.05291719 18.49088633 -0.04882812 16.26757812 C-0.03786013 10.8450282 -0.0211684 5.42251919 0 0 Z " fill="#1122AF" transform="translate(199,433)"/>
<path d="M0 0 C9.9 0 19.8 0 30 0 C30 2.31 30 4.62 30 7 C25.71 7 21.42 7 17 7 C17 28.45 17 49.9 17 72 C16.01 72 15.02 72 14 72 C14 50.55 14 29.1 14 7 C9.38 7 4.76 7 0 7 C0 4.69 0 2.38 0 0 Z " fill="#0F22AE" transform="translate(99,433)"/>
<path d="M0 0 C0.99 0 1.98 0 3 0 C3 23.76 3 47.52 3 72 C2.01 72 1.02 72 0 72 C0 48.24 0 24.48 0 0 Z " fill="#1022AE" transform="translate(396,433)"/>
<path d="" fill="#0000FF" transform="translate(0,0)"/>
<path d="" fill="#0000FF" transform="translate(0,0)"/>
<path d="" fill="#0000FF" transform="translate(0,0)"/>
<path d="" fill="#0000FF" transform="translate(0,0)"/>
</svg>
